# xmcd CD database file
#
# Track frame offsets:
#	150
#	18642
#	34897
#	65684
#	87280
#	106712
#	127953
#	149568
#	167338
#	183603
#	201010
#	218361
#
# Disc length: 3134 seconds
#
# Revision: 0
# Processed by: cddbd v1.5.2PL0 Copyright (c) Steve Scherf et al.
# Submitted via: CDex 1.70beta2
#
DISCID=a30c3c0c
DTITLE=Fergie McElligott - Coutry Rock 'n Roll
DYEAR=2011
DGENRE=Country
TTITLE0=White Lies
TTITLE1=One night of passion
TTITLE2=Back on the road
TTITLE3=Thinking of you
TTITLE4=Country rock 'n roll
TTITLE5=Falleb hero
TTITLE6=Drive in movies
TTITLE7=Your still arond
TTITLE8=Oh why
TTITLE9=Human race
TTITLE10=Leading man
TTITLE11=Back on the road (radio mix)
EXTD=YEAR: 2011
EXTT0=
EXTT1=
EXTT2=
EXTT3=
EXTT4=
EXTT5=
EXTT6=
EXTT7=
EXTT8=
EXTT9=
EXTT10=
EXTT11=
PLAYORDER=
